<svg width="22" height="24" viewBox="0 0 22 24" fill="none" xmlns="http://www.w3.org/2000/svg">
<path d="M10.6562 0C4.76953 0 0 5.20312 0 11.625C0 18.0469 4.76953 23.25 10.6562 23.25C16.543 23.25 21.3125 18.0469 21.3125 11.625C21.3125 5.20312 16.543 0 10.6562 0ZM16.8438 12.9375C16.8438 13.2469 16.6117 13.5 16.3281 13.5H12.375V17.8125C12.375 18.1219 12.143 18.375 11.8594 18.375H9.45312C9.16953 18.375 8.9375 18.1219 8.9375 17.8125V13.5H4.98438C4.70078 13.5 4.46875 13.2469 4.46875 12.9375V10.3125C4.46875 10.0031 4.70078 9.75 4.98438 9.75H8.9375V5.4375C8.9375 5.12813 9.16953 4.875 9.45312 4.875H11.8594C12.143 4.875 12.375 5.12813 12.375 5.4375V9.75H16.3281C16.6117 9.75 16.8438 10.0031 16.8438 10.3125V12.9375Z" fill="#0CF6E8"/>
</svg>
