<svg width="245" height="347" viewBox="0 0 245 347" fill="none" xmlns="http://www.w3.org/2000/svg">
<g filter="url(#filter0_d)">
<path d="M192 48C17.2367 204.065 11.6743 206 150.56 206" stroke="#0CF7E8" stroke-width="12"/>
</g>
<g filter="url(#filter1_d)">
<path d="M150 122C198.872 292.285 205.832 289.998 166.992 289.998" stroke="#0CF7E8" stroke-width="12"/>
</g>
<path d="M112.252 167.098L108.35 172.371C106.545 174.895 105.155 176.156 104.178 176.156C103.725 176.156 103.323 175.898 102.971 175.383C102.62 174.859 102.26 174.066 101.893 173.004C101.526 171.941 101.268 171.137 101.12 170.59C100.784 169.324 100.557 168.605 100.44 168.434L99.8422 171.48C99.6547 172.465 99.4633 173.371 99.268 174.199C99.0727 175.02 98.8578 176.008 98.6234 177.164C98.3969 178.32 98.2563 179.191 98.2016 179.777C98.1859 179.973 97.9984 180.184 97.6391 180.41C97.2875 180.637 97.018 180.75 96.8305 180.75C96.4555 180.75 96.1039 180.574 95.7758 180.223C95.4555 179.879 95.2953 179.547 95.2953 179.227C95.2953 178.477 95.4516 177.523 95.7641 176.367C97.0531 171.633 97.7875 168.652 97.9672 167.426C98.1547 166.199 98.2484 165.18 98.2484 164.367C98.2484 163.945 98.432 163.621 98.7992 163.395C99.1664 163.168 99.6469 163.055 100.241 163.055C100.561 163.055 100.881 163.266 101.202 163.688C101.522 164.109 101.733 164.5 101.834 164.859L101.823 164.836L103.452 169.395C104.1 171.215 104.534 172.371 104.752 172.863C105.596 171.949 106.846 170.359 108.502 168.094C110.159 165.836 111.291 164.383 111.901 163.734C112.51 163.086 112.94 162.762 113.19 162.762C113.573 162.762 113.998 162.922 114.467 163.242C114.936 163.562 115.17 163.836 115.17 164.062C115.17 164.234 115.018 165.41 114.713 167.59C114.502 169.129 114.311 170.852 114.139 172.758C113.967 174.664 113.881 175.789 113.881 176.133C113.881 176.555 113.936 176.988 114.045 177.434C114.123 177.777 114.163 178.102 114.163 178.406C114.163 179.18 114.026 179.707 113.752 179.988C113.487 180.27 113.073 180.41 112.51 180.41C111.487 180.41 110.975 179.641 110.975 178.102C110.975 176.648 111.108 174.875 111.373 172.781C111.639 170.68 111.881 169.066 112.1 167.941C112.178 167.535 112.229 167.254 112.252 167.098ZM136.529 165.469L132.92 165.656C131.662 165.727 130.58 165.84 129.673 165.996C128.767 166.145 128.275 166.262 128.197 166.348C128.127 166.426 128.076 166.664 128.045 167.062C128.005 167.453 127.865 168.141 127.623 169.125C127.427 169.875 127.31 170.488 127.271 170.965C127.771 170.965 128.49 170.914 129.427 170.812C130.365 170.711 131.029 170.613 131.42 170.52C132.545 170.246 133.416 170.109 134.033 170.109C135.267 170.109 135.884 170.477 135.884 171.211C135.884 171.75 135.712 172.125 135.369 172.336C135.025 172.539 134.486 172.68 133.752 172.758C133.298 172.805 132.791 172.875 132.228 172.969C131.931 173.016 131.56 173.062 131.115 173.109C128.951 173.359 127.673 173.555 127.283 173.695H127.271C127.138 173.734 127.037 173.824 126.966 173.965C126.904 174.105 126.787 174.688 126.615 175.711C126.443 176.727 126.357 177.438 126.357 177.844C126.396 178.133 126.576 178.277 126.896 178.277C127.271 178.277 128.255 178.176 129.849 177.973C131.451 177.762 132.443 177.617 132.826 177.539C133.896 177.312 134.595 177.199 134.923 177.199C135.916 177.34 136.412 177.801 136.412 178.582C136.412 178.941 136.295 179.215 136.06 179.402C135.279 179.754 134.197 179.973 132.814 180.059C131.744 180.121 130.447 180.254 128.923 180.457C127.564 180.746 126.283 180.891 125.08 180.891C124.447 180.891 123.99 180.754 123.709 180.48C123.427 180.215 123.259 179.797 123.205 179.227L123.17 178.84C123.162 178.777 123.228 178.539 123.369 178.125C123.681 177.164 124.064 175.027 124.517 171.715C124.97 168.402 125.197 166.559 125.197 166.184C125.197 166.176 125.173 166.145 125.127 166.09C125.072 166.043 124.978 165.895 124.845 165.645C124.72 165.387 124.658 165.125 124.658 164.859C124.658 164.719 124.673 164.605 124.705 164.52C124.736 164.355 124.904 164.191 125.209 164.027C125.513 163.863 125.798 163.781 126.064 163.781C126.431 163.781 126.802 163.805 127.177 163.852C127.826 163.852 129.935 163.617 133.505 163.148C134.693 162.992 135.314 162.914 135.369 162.914L135.533 162.902C136.939 162.801 137.642 163.254 137.642 164.262C137.642 164.449 137.513 164.684 137.255 164.965C137.005 165.238 136.763 165.406 136.529 165.469Z" fill="white"/>
<defs>
<filter id="filter0_d" x="0.5" y="0.1353" width="243.165" height="262.365" filterUnits="userSpaceOnUse" color-interpolation-filters="sRGB">
<feFlood flood-opacity="0" result="BackgroundImageFix"/>
<feColorMatrix in="SourceAlpha" type="matrix" values="0 0 0 0 0 0 0 0 0 0 0 0 0 0 0 0 0 0 127 0"/>
<feOffset dy="4"/>
<feGaussianBlur stdDeviation="25"/>
<feColorMatrix type="matrix" values="0 0 0 0 0 0 0 0 0 0 0 0 0 0 0 0 0 0 0.25 0"/>
<feBlend mode="normal" in2="BackgroundImageFix" result="effect1_dropShadow"/>
<feBlend mode="normal" in="SourceGraphic" in2="effect1_dropShadow" result="shape"/>
</filter>
<filter id="filter1_d" x="97.5972" y="75.3103" width="146.903" height="271.19" filterUnits="userSpaceOnUse" color-interpolation-filters="sRGB">
<feFlood flood-opacity="0" result="BackgroundImageFix"/>
<feColorMatrix in="SourceAlpha" type="matrix" values="0 0 0 0 0 0 0 0 0 0 0 0 0 0 0 0 0 0 127 0"/>
<feOffset dy="4"/>
<feGaussianBlur stdDeviation="25"/>
<feColorMatrix type="matrix" values="0 0 0 0 0 0 0 0 0 0 0 0 0 0 0 0 0 0 0.25 0"/>
<feBlend mode="normal" in2="BackgroundImageFix" result="effect1_dropShadow"/>
<feBlend mode="normal" in="SourceGraphic" in2="effect1_dropShadow" result="shape"/>
</filter>
</defs>
</svg>
