<svg width="30" height="20" viewBox="0 0 40 40" fill="none" xmlns="http://www.w3.org/2000/svg">
<g id="gg:menu-left">
<g id="Group">
<path id="Vector" d="M36.6667 9.99166C36.6667 9.07499 35.9234 8.33333 35.0084 8.33333H21.6584C21.2186 8.33333 20.7968 8.50804 20.4858 8.81904C20.1748 9.13004 20.0001 9.55184 20.0001 9.99166C20.0001 10.4315 20.1748 10.8533 20.4858 11.1643C20.7968 11.4753 21.2186 11.65 21.6584 11.65H35.0084C35.4482 11.65 35.87 11.4753 36.181 11.1643C36.492 10.8533 36.6667 10.4315 36.6667 9.99166Z" fill="#16011E"/>
<path id="Vector_2" d="M36.6667 20C36.6667 19.0833 35.9234 18.3417 35.0084 18.3417H4.99175C4.55193 18.3417 4.13013 18.5164 3.81913 18.8274C3.50813 19.1384 3.33342 19.5602 3.33342 20C3.33342 20.4398 3.50813 20.8616 3.81913 21.1726C4.13013 21.4836 4.55193 21.6583 4.99175 21.6583H35.0084C35.4482 21.6583 35.87 21.4836 36.181 21.1726C36.492 20.8616 36.6667 20.4398 36.6667 20Z" fill="#16011E"/>
<path id="Vector_3" d="M35.0084 28.35C35.4482 28.35 35.87 28.5247 36.181 28.8357C36.492 29.1467 36.6667 29.5685 36.6667 30.0083C36.6667 30.4482 36.492 30.87 36.181 31.181C35.87 31.492 35.4482 31.6667 35.0084 31.6667H14.9917C14.5519 31.6667 14.1301 31.492 13.8191 31.181C13.5081 30.87 13.3334 30.4482 13.3334 30.0083C13.3334 29.5685 13.5081 29.1467 13.8191 28.8357C14.1301 28.5247 14.5519 28.35 14.9917 28.35H35.0084Z" fill="#16011E"/>
</g>
</g>
</svg>
