<svg width="30" height="20" viewBox="0 0 40 40" fill="none" xmlns="http://www.w3.org/2000/svg">
<g id="gg:menu-left">
<g id="Group">
<path id="Vector" d="M30.0084 36.6666C30.9251 36.6666 31.6667 35.9233 31.6667 35.0083L31.6667 21.6583C31.6667 21.2185 31.492 20.7967 31.181 20.4857C30.87 20.1747 30.4482 20 30.0084 20C29.5686 20 29.1468 20.1747 28.8358 20.4857C28.5248 20.7967 28.3501 21.2185 28.3501 21.6583L28.3501 35.0083C28.3501 35.4481 28.5248 35.8699 28.8358 36.1809C29.1468 36.4919 29.5686 36.6666 30.0084 36.6666V36.6666Z" fill="#110117"/>
<path id="Vector_2" d="M20.0001 36.6666C20.9168 36.6666 21.6584 35.9233 21.6584 35.0083L21.6584 4.99163C21.6584 4.55181 21.4837 4.13001 21.1727 3.81901C20.8617 3.50801 20.4399 3.33329 20.0001 3.33329C19.5603 3.33329 19.1385 3.50801 18.8275 3.81901C18.5165 4.13001 18.3418 4.55181 18.3418 4.99163L18.3418 35.0083C18.3418 35.4481 18.5165 35.8699 18.8275 36.1809C19.1385 36.4919 19.5603 36.6666 20.0001 36.6666V36.6666Z" fill="#110117"/>
<path id="Vector_3" d="M11.6501 35.0083C11.6501 35.4481 11.4754 35.8699 11.1644 36.1809C10.8534 36.4919 10.4316 36.6666 9.99181 36.6666C9.55199 36.6666 9.13019 36.4919 8.81919 36.1809C8.50819 35.8699 8.33348 35.4481 8.33348 35.0083L8.33348 14.9916C8.33348 14.5518 8.50819 14.13 8.81919 13.819C9.13019 13.508 9.55199 13.3333 9.99181 13.3333C10.4316 13.3333 10.8534 13.508 11.1644 13.819C11.4754 14.13 11.6501 14.5518 11.6501 14.9916L11.6501 35.0083Z" fill="#110117"/>
</g>
</g>
</svg>
